<svg xmlns="http://www.w3.org/2000/svg" xmlns:xlink="http://www.w3.org/1999/xlink" width="178" height="135" viewBox="0 0 178 135">
  <defs>
    <clipPath id="clip-path">
      <rect id="Rectangle_36" data-name="Rectangle 36" width="178" height="135" transform="translate(871 13)" fill="#fff" stroke="#707070" stroke-width="1"/>
    </clipPath>
  </defs>
  <g id="Group_60" data-name="Group 60" transform="translate(-871 -13)">
    <g id="Mask_Group_5" data-name="Mask Group 5" clip-path="url(#clip-path)">
      <circle id="Ellipse_6" data-name="Ellipse 6" cx="89" cy="89" r="89" transform="translate(871 -30)" fill="#de0a1c"/>
    </g>
    <g id="Group_59" data-name="Group 59" transform="translate(123.495 -54.71)">
      <g id="Group_16" data-name="Group 16" transform="translate(760 90.71)">
        <g id="Group_14" data-name="Group 14" transform="translate(32.471 55.892)">
          <g id="Group_12" data-name="Group 12" transform="translate(0)">
            <path id="Path_9" data-name="Path 9" d="M1077.849,445.173a4.776,4.776,0,0,0,1.806-.319,3.706,3.706,0,0,0,1.292-.838l-1.057-1.292a2.772,2.772,0,0,1-.911.6,2.925,2.925,0,0,1-1.12.215,2.822,2.822,0,0,1-1.292-.3,2.277,2.277,0,0,1-.939-.846,2.328,2.328,0,0,1-.344-1.268,2.37,2.37,0,0,1,.344-1.277,2.318,2.318,0,0,1,.924-.861,2.7,2.7,0,0,1,1.255-.3,2.841,2.841,0,0,1,2.031.861l1.044-1.311a3.8,3.8,0,0,0-1.292-.861,4.545,4.545,0,0,0-1.757-.319,4.737,4.737,0,0,0-2.272.536,3.908,3.908,0,0,0-2.115,3.525,3.985,3.985,0,0,0,.542,2.054,3.818,3.818,0,0,0,1.538,1.451,4.851,4.851,0,0,0,2.307.543m-7.109-8.843a1.1,1.1,0,0,0,.79-.3,1,1,0,0,0,.31-.76.985.985,0,0,0-.31-.747,1.2,1.2,0,0,0-1.578,0,.978.978,0,0,0-.31.747.994.994,0,0,0,.31.76,1.09,1.09,0,0,0,.788.3m-.9,8.665h1.791v-7.734h-1.791Zm-6.445-1.938a2.369,2.369,0,0,1-1.658-.6,2.027,2.027,0,0,1-.646-1.572,2.076,2.076,0,0,1,.646-1.587,2.331,2.331,0,0,1,1.658-.614,2.387,2.387,0,0,1,1.677.607,2.053,2.053,0,0,1,.663,1.593,2.011,2.011,0,0,1-.663,1.58,2.427,2.427,0,0,1-1.677.592m2.4-5.784v.96a3.249,3.249,0,0,0-2.623-1.156,4.042,4.042,0,0,0-2.016.5,3.556,3.556,0,0,0-1.38,1.367,3.827,3.827,0,0,0-.5,1.925,3.75,3.75,0,0,0,.5,1.912,3.5,3.5,0,0,0,1.38,1.35,4.157,4.157,0,0,0,2.033.487,3.312,3.312,0,0,0,2.539-1.029v.605a1.683,1.683,0,0,1-.678,1.419,2.935,2.935,0,0,1-1.819.515,6.162,6.162,0,0,1-2.679-.646l-.622,1.481a7.472,7.472,0,0,0,1.531.523,7.931,7.931,0,0,0,1.785.2,5.483,5.483,0,0,0,2.229-.431,3.47,3.47,0,0,0,1.5-1.206,3.122,3.122,0,0,0,.536-1.819v-6.968Zm-12.722,6.43a1.836,1.836,0,0,1-1.092-.282.889.889,0,0,1-.388-.762q0-1.077,2.285-1.077h1.705a2.054,2.054,0,0,1-.825,1.606,2.846,2.846,0,0,1-1.686.515m4.853-.151a.625.625,0,0,1-.431-.142.546.546,0,0,1-.164-.431v-2.784a2.842,2.842,0,0,0-.958-2.285,3.952,3.952,0,0,0-2.651-.818,6.752,6.752,0,0,0-1.807.245,4.4,4.4,0,0,0-1.55.769l.9,1.326a3.837,3.837,0,0,1,1.163-.586,4.138,4.138,0,0,1,1.206-.189,2.232,2.232,0,0,1,1.419.416,1.442,1.442,0,0,1,.543,1.163h-1.764a5.473,5.473,0,0,0-3.015.667,2.212,2.212,0,0,0-.577,3.167,2.613,2.613,0,0,0,1.122.818,4.187,4.187,0,0,0,1.544.273,4.312,4.312,0,0,0,1.636-.3,2.628,2.628,0,0,0,1.2-.952,1.418,1.418,0,0,0,.676.861,2.334,2.334,0,0,0,1.171.289,1.836,1.836,0,0,0,.719-.127v-1.443a1.556,1.556,0,0,1-.368.058m-9.948-8.71h-2.524l-3.314,7.5-3.357-7.5h-2.526v10.159h1.82v-7.752l3.4,7.573h1.268l3.413-7.7v7.879h1.82Zm-21.076-.452v8.8a1.8,1.8,0,0,0,.564,1.4,2.154,2.154,0,0,0,1.507.515,2.79,2.79,0,0,0,1.057-.183v-1.581a1.7,1.7,0,0,1-.635.127c-.469,0-.7-.215-.7-.663v-8.419Zm-6.723,9.319a1.836,1.836,0,0,1-1.092-.282.89.89,0,0,1-.388-.762q0-1.077,2.285-1.077h1.705a2.054,2.054,0,0,1-.825,1.606,2.847,2.847,0,0,1-1.686.515m4.851-.155a.626.626,0,0,1-.431-.142.546.546,0,0,1-.164-.431v-2.78a2.842,2.842,0,0,0-.958-2.285,3.949,3.949,0,0,0-2.649-.818,6.751,6.751,0,0,0-1.807.245,4.4,4.4,0,0,0-1.55.767l.9,1.326a3.834,3.834,0,0,1,1.163-.586,4.136,4.136,0,0,1,1.206-.189,2.232,2.232,0,0,1,1.421.418,1.442,1.442,0,0,1,.543,1.163h-1.764a5.5,5.5,0,0,0-3.015.663,2.213,2.213,0,0,0-.577,3.167,2.614,2.614,0,0,0,1.122.818,4.187,4.187,0,0,0,1.544.273,4.312,4.312,0,0,0,1.636-.3,2.627,2.627,0,0,0,1.2-.952,1.418,1.418,0,0,0,.676.861,2.334,2.334,0,0,0,1.171.289,1.836,1.836,0,0,0,.719-.127v-1.438a1.556,1.556,0,0,1-.368.058m-13.335-4.888a2.328,2.328,0,0,1,1.507.487,2.1,2.1,0,0,1,.762,1.292h-4.554a2.262,2.262,0,0,1,.8-1.3,2.339,2.339,0,0,1,1.481-.472m4.076,2.509a4.327,4.327,0,0,0-.493-2.061,3.724,3.724,0,0,0-1.417-1.479,4.143,4.143,0,0,0-2.166-.551,4.241,4.241,0,0,0-2.172.543,3.785,3.785,0,0,0-1.438,1.469,4.16,4.16,0,0,0-.506,2.031,4.08,4.08,0,0,0,.528,2.067,3.716,3.716,0,0,0,1.548,1.458,5.011,5.011,0,0,0,2.369.53,5.233,5.233,0,0,0,1.938-.332,3.659,3.659,0,0,0,1.324-.861l-1-1.227a3.484,3.484,0,0,1-1.008.635,3.337,3.337,0,0,1-1.234.215,2.927,2.927,0,0,1-1.723-.48,2.154,2.154,0,0,1-.883-1.339h6.279a3.109,3.109,0,0,0,.056-.62M999.263,436.5h3.342a1.722,1.722,0,0,1,1.171.373,1.276,1.276,0,0,1,.431,1.008,1.293,1.293,0,0,1-.431,1.016,1.691,1.691,0,0,1-1.171.381h-3.342Zm5.331,8.495h2.186l-2.864-4.194a2.857,2.857,0,0,0,1.608-1.077,3.047,3.047,0,0,0,.577-1.835,3.122,3.122,0,0,0-.388-1.544,2.8,2.8,0,0,0-1.107-1.1,3.389,3.389,0,0,0-1.677-.4H997.4v10.15h1.863v-4.067h2.638Z" transform="translate(-997.401 -434.228)" fill="#fff"/>
            <path id="Path_10" data-name="Path 10" d="M1391.143,444.052h-.532v1.275h-.383v-1.275h-.528v-.345h1.443Zm2.153,1.275h-.375V444.2l-.444,1.1h-.258l-.452-1.077v1.1h-.366v-1.619h.523l.431,1.01.431-1.01h.51Z" transform="translate(-1305.229 -441.666)" fill="#fff"/>
          </g>
        </g>
        <g id="Group_15" data-name="Group 15" transform="translate(0 0)">
          <path id="Path_14" data-name="Path 14" d="M1193.588.034a20.265,20.265,0,0,0-12.159-3.552,7.475,7.475,0,0,0-5.954,3.2c-1.851-3.2-5.5-5.2-11.158-5.154-9.107.1-18.163,4.3-25.318,4.3-6.855.05-11.858-4.253-11.708-11.958.3-13.459,11.658-25.568,20.164-31.022,4.853-3.1,8.956-4.053,11.608-3.753,1.951.2,4.3,2.452,2.8,5.8-2.151,4.853-5.154,4.453-5.054,2.152a3.922,3.922,0,0,1,1.8-3,4.129,4.129,0,0,1,1.751-.45c.45-.35.751-3-2.752-2.152-3.5.9-7.705,4.3-11.708,8.756s-10.257,12.809-11.808,21.615c-.7,4.1-.25,11.508,9.457,11.458,8.256-.05,20.364-5.454,31.472-5.354a21.54,21.54,0,0,1,11.008,3c2.9,1.751,6.354,4.353,7.555,6.1m2.652-24.367h1.7s-8.406,12.159-13.209,11.608c-2.652-.3-1.851-3.6-1.851-3.6s-3.753,4.353-7.155,3.5c-3.1-.8-1.1-5.954-1.1-5.954-.35.15-7.1,7.755-11.808,5.9-5-1.9-2.452-8.256-1.5-10.157.8-1.6,1.7-3.2,1.7-3.2s-.751.2-1.251.3c-.45.1-1.2.25-1.2.25s-2.3,3.853-3.753,5.754c-1.4,1.9-7.505,8.406-11.108,7.1s-2.7-6.3-.7-10.307c3.252-6.455,11.008-14.41,15.661-13.209,4.7,1.2.8,8.856.8,8.856s.951.15,3.152-1.4c3.252-2.2,7.505-8.156,12.108-7.455,2.152.3,4.2,2.552,1.4,6.755-.9,1.351-2.352,2.552-3.5,1.351-.7-.751-.1-2.1.651-3.052a3.028,3.028,0,0,1,2.5-1.151s.75-1.751-1.151-1.7c-1.6.05-5.554,3.7-7.806,7.405-2.052,3.4-5.2,9.206-2.052,10.457,2.852,1.151,8.356-5.354,10.858-8.756,2.552-3.4,8.306-11.108,13.109-11.408a3.257,3.257,0,0,1,2.652,1.4l.551-.9h4.853s-9.106,15.211-9.807,16.361c-.55.9-1.3,2.952.75,1.8,2.2-1.051,6.5-6.555,6.5-6.555m-37.526-1.551a12.6,12.6,0,0,1-2.5-1.151,5.587,5.587,0,0,1-1.8-1.951c-.05-.1-.1,0-.15.05s-.3.4-2,2.9c-1.7,2.552-4.253,7.705-1.9,8.606,1.551.55,4.1-2.152,5.5-3.9a40.487,40.487,0,0,0,2.9-4.353c.1-.15.05-.15-.05-.2m1.9-8.106c-1.251-.951-4.5,1.3-4.5,3.6,0,2.352,2.9,3,3.3,3.052,0,0,.35.1.45-.2a14.579,14.579,0,0,0,.951-2.051c.4-1.2,1-3.5-.2-4.4m24.667,12.659c1.951-2.652,7.355-12.058,7.355-12.058a.83.83,0,0,0-.7-.7c-.75-.05-2,.2-4.453,3.3a61.756,61.756,0,0,0-5.8,8.106c-1.551,2.8-2.2,4.753-1.3,5.3a1.377,1.377,0,0,0,.9.1,5.763,5.763,0,0,0,2.352-1.9c.45-.5,1-1.251,1.651-2.152M1207-35.841h-4.6l-2.6,4.2h4.6Zm67.747-7.555c-3.4,2.2-8.106,4.153-12.609,3.753q-1.726,1.8-3.6,4.053c7.855,1.551,14.71-3.3,18.363-7.455a23.755,23.755,0,0,0,3.4-4.9,28.917,28.917,0,0,1-5.554,4.553M1261.336-7.771c-.65,1.051-1.4,3.052.751,1.8,2.6-1.5,6.354-7.155,6.354-7.155h1.7a54.731,54.731,0,0,1-5.1,6.7c-2.652,2.952-5.9,5.6-8.156,5.354-2.652-.3-1.851-3.8-1.851-3.8s-3.8,4.053-6.454,3.753c-3.552-.4-2.452-4.8-2.452-4.8s-4,4.953-6.755,4.8c-4.3-.25-3.2-5.5-2-9.156.65-1.951,1.251-3.5,1.251-3.5s-.45.1-1.351.25c-.5.05-1.351.1-1.351.1s-1.8,3.152-3.2,5.054c-1.451,1.9-7.505,8.456-11.108,7.155-3.3-1.2-2.2-6.254-.3-10.307,2.8-5.854,10.708-14.31,15.261-13.209,4.7,1.151.1,9.757.1,9.757a.049.049,0,0,0,.05.05,1.888,1.888,0,0,0,.9-.05,9.254,9.254,0,0,0,1.751-.5s4.753-9.957,10.007-16.462,15.711-17.712,19.814-15.011c1,.65.551,2.952-.8,5.754-.6.2-1.2.35-1.851.5a15.872,15.872,0,0,0,1.7-4c.6-3.352-7.255,3.753-12.859,11.358a101.711,101.711,0,0,0-9.006,14.51,24.611,24.611,0,0,0,2.9-2.051,84.067,84.067,0,0,0,7.1-6.655,69.548,69.548,0,0,0,6.054-7c.6-.05,1.2-.1,1.8-.2a72.21,72.21,0,0,1-6.7,7.906c-2.252,2.252-4.653,4.7-6.755,6.455a56.633,56.633,0,0,1-5.9,4.453s-4.9,9.907-2.251,10.507c1.551.35,4.653-4.4,4.653-4.4s4.053-6.154,6.454-8.956c3.3-3.8,6.2-5.954,9.056-6,1.651-.05,2.652,1.751,2.652,1.751l.8-1.2h4.853s-9.056,15.311-9.757,16.462m-27.169-6a9.568,9.568,0,0,1-2.2-1.4,6.248,6.248,0,0,1-1.651-2c-.05-.1-.1,0-.15.05a30.347,30.347,0,0,0-1.951,2.752c-1.7,2.552-4.353,7.755-1.952,8.656,1.551.55,4.1-2.1,5.454-3.9a29.048,29.048,0,0,0,2.552-3.9c.05-.2,0-.25-.1-.25m2.452-4.3c.45-1.151,1-3.452-.15-4.353-1.251-.951-4.5,1.3-4.5,3.552,0,2.352,2.3,3.4,2.852,3.552.3.1.4.1.6-.2,0-.1.75-1.351,1.2-2.552m27.719-3.2a1.3,1.3,0,0,0,.15-.35.83.83,0,0,0-.7-.7c-.751-.05-1.751.1-4.453,3.052a40.561,40.561,0,0,0-5.654,8.056c-1.551,2.8-2.152,4.853-1.251,5.4a1.413,1.413,0,0,0,.9.1c.6-.15,1.251-.7,2.3-1.9.5-.55,1-1.351,1.651-2.2,1.751-2.352,6.2-9.957,7.055-11.458M1274.745-43.4c-3.4,2.2-8.106,4.153-12.609,3.753q-1.726,1.8-3.6,4.053c7.855,1.551,14.71-3.3,18.363-7.455a23.755,23.755,0,0,0,3.4-4.9,28.917,28.917,0,0,1-5.554,4.553m-22.015,5.7c-3.7-1.9-6.4-4.2-9.256-5.654-2.7-1.4-4.453-1.951-6.6-1.651-.35.05-.9.2-.9.2s1.1,3.8-3.352,10.257c-4.5,6.5-8.606,6.5-9.757,4.653-1.2-1.9.35-5.754,3-9.156a32.3,32.3,0,0,1,7.605-6.555s-1.551-.951-5.354,1.2c-3.7,2.1-10.057,7.055-15.961,15.461s-7.055,13.009-7.906,16.662-.05,7.505,3.953,7.505c4.053,0,8.706-6.154,10.057-8.306,2.452-4,4.053-10.107.7-9.256-1.651.4-3,2.252-3.853,4a17.322,17.322,0,0,0-1.2,3.552,13.651,13.651,0,0,0-3.252,1.9,26.232,26.232,0,0,0-3.1,2.752s0-2.9,2.3-7.605,6.555-6.855,8.956-7.055c2.151-.2,5,1.651,2.6,8.456s-9.457,15.061-16.862,15.161c-6.855.1-11.308-8.656-1.8-23.867,10.507-16.862,22.916-22.015,26.919-22.616s5.3,1.2,5.3,1.2a17.176,17.176,0,0,1,7.656-1.251c4.9.35,8.706,3.8,13.709,6.254-1.2,1.251-2.452,2.552-3.6,3.753m-18.263-6.6a19.437,19.437,0,0,0-6.2,4.8c-3.352,3.7-5.254,7.805-3.853,8.906.55.4,1.8.5,4.153-1.6a18.25,18.25,0,0,0,4.9-6.8c1.5-3.6,1-5.254,1-5.3" transform="translate(-1127.288 47.952)" fill="#fff"/>
          <path id="Path_15" data-name="Path 15" d="M1406.047,38.5a1.581,1.581,0,0,1,.7.7,2.071,2.071,0,0,1,.25.951,1.917,1.917,0,0,1-.25.951,1.581,1.581,0,0,1-.7.7,2.127,2.127,0,0,1-2,0,1.581,1.581,0,0,1-.7-.7,1.6,1.6,0,0,1-.25-.951,2.07,2.07,0,0,1,.25-.951,1.581,1.581,0,0,1,.7-.7,2.127,2.127,0,0,1,2,0Zm-.2,3.052a1.57,1.57,0,0,0,0-2.7,1.7,1.7,0,0,0-1.6,0,1.173,1.173,0,0,0-.55.55,1.7,1.7,0,0,0,0,1.6,1.453,1.453,0,0,0,.55.55,1.7,1.7,0,0,0,1.6,0Zm-.05-1.4a.5.5,0,0,1-.25.2l.45.7h-.5l-.4-.65h-.35v.65h-.45V39.3h1a.516.516,0,0,1,.55.55.636.636,0,0,1-.05.3Zm-1.051-.15h.5a.184.184,0,0,0,.15-.05c.05-.05.05-.05.05-.1s0-.1-.05-.1a.184.184,0,0,0-.15-.05h-.5Z" transform="translate(-1265.095 4.88)" fill="#fff"/>
        </g>
      </g>
      <g id="Group_18" data-name="Group 18" transform="translate(821.875 165.135)">
        <path id="Path_11" data-name="Path 11" d="M1421.631,443.55a3.053,3.053,0,0,1-1.17.744,4.309,4.309,0,0,1-1.453.249,3.957,3.957,0,0,1-1.905-.464,3.554,3.554,0,0,1-1.346-4.916,3.567,3.567,0,0,1,1.335-1.285,3.755,3.755,0,0,1,1.848-.469,4,4,0,0,1,1.434.261,3.49,3.49,0,0,1,1.194.765l.191.186,1.208-1.321-.16-.174a4.244,4.244,0,0,0-1.688-1.092,6.29,6.29,0,0,0-2.178-.376,5.937,5.937,0,0,0-2.849.689,5.23,5.23,0,0,0,.022,9.26,6.113,6.113,0,0,0,2.9.688,6.572,6.572,0,0,0,2.16-.353,4.153,4.153,0,0,0,1.719-1.1l.164-.177-1.232-1.308Z" transform="translate(-1413.337 -435.658)" fill="#fff"/>
        <path id="Path_12" data-name="Path 12" d="M1470.607,452.17a1.5,1.5,0,0,1-.249.854,1.789,1.789,0,0,1-.707.61,2.393,2.393,0,0,1-1.078.231,1.726,1.726,0,0,1-1.264-.422,1.554,1.554,0,0,1-.43-1.178V447.5h-1.819v5.006a3.125,3.125,0,0,0,.416,1.624,2.818,2.818,0,0,0,1.163,1.082,3.654,3.654,0,0,0,1.677.374,4.186,4.186,0,0,0,1.553-.3,2.8,2.8,0,0,0,.806-.49v.61h1.751V447.5h-1.819Z" transform="translate(-1453.922 -444.952)" fill="#fff"/>
        <path id="Path_13" data-name="Path 13" d="M1518.2,448.716h0a3.916,3.916,0,0,0-1.437-1.487,3.99,3.99,0,0,0-2.072-.545,3.83,3.83,0,0,0-1.767.4,3.609,3.609,0,0,0-.824.58v-.806h-1.751v10.352h1.819v-3.18a3.546,3.546,0,0,0,.808.542,3.857,3.857,0,0,0,1.715.372,3.992,3.992,0,0,0,2.072-.545,3.9,3.9,0,0,0,1.437-1.495,4.479,4.479,0,0,0,0-4.19Zm-1.326,2.092a2.6,2.6,0,0,1-.3,1.26,2.19,2.19,0,0,1-.826.857,2.347,2.347,0,0,1-1.205.31,2.519,2.519,0,0,1-1.219-.3,2.234,2.234,0,0,1-.87-.853,2.494,2.494,0,0,1-.324-1.274,2.459,2.459,0,0,1,.324-1.266,2.249,2.249,0,0,1,.871-.847,2.521,2.521,0,0,1,1.219-.3,2.347,2.347,0,0,1,1.205.31,2.193,2.193,0,0,1,.826.857A2.576,2.576,0,0,1,1516.879,450.808Z" transform="translate(-1489.464 -444.31)" fill="#fff"/>
      </g>
    </g>
  </g>
</svg>
