<svg xmlns="http://www.w3.org/2000/svg" width="1937.24" height="1101.937" viewBox="0 0 1937.24 1101.937">
  <g id="Group_47" data-name="Group 47" transform="translate(9.756 -3070.532)">
    <rect id="Rectangle_29" data-name="Rectangle 29" width="1920" height="867" transform="translate(0 3305.469)" fill="#f5f5f5"/>
    <path id="Path_34" data-name="Path 34" d="M2572.853-1073.751c0-41.012-3.946-80.728-5.859-88.688-2.09-8.643-5.74-23.707-17.922-27.752-10.073-3.366-22.365-3.76-29.424,3.979-6.378,6.994-12.886,7.19-18.308,7.19-5.4,0-43.221-19.833-58.737-20.253-14.887-.417-19.131,3.233-28.563,12.69-27.545,0-91,1.453-140.717-5.3-53.58-7.257-125.83-29.533-173.749-43.739-107.325-31.843-206.291-68.94-248.293-74.35-22.869-2.991-56.118-8.026-56.118,6.2-11.36-28.148-308.054-41.013-320.007-24.937-5.453-13.084-29.423-7.234-53.491-4.268-14.438,1.782-247.119,41.146-367.4,41.257-112.073.107-165.939-22.19-197.616-32.283-44.883-14.294-159.222-29.425-188.558,22.275-17.527,30.963-32.481,133.66-32.481,227.978Z" transform="translate(-645.369 4408.22)" fill="#f5f5f5" fill-rule="evenodd"/>
  </g>
</svg>
