<svg id="Group_35" data-name="Group 35" xmlns="http://www.w3.org/2000/svg" width="20.292" height="16.532" viewBox="0 0 20.292 16.532">
  <path id="Path_23" data-name="Path 23" d="M-521.743-1988.208h-.678a.932.932,0,0,0-.1-.013,10.978,10.978,0,0,1-1.253-.109,11.762,11.762,0,0,1-4.61-1.684c-.024-.015-.045-.033-.068-.05l.005-.018a8.4,8.4,0,0,0,3.216-.259,8.088,8.088,0,0,0,2.871-1.46,4.465,4.465,0,0,1-1.649-.4,4.268,4.268,0,0,1-1.363-1.019,3.612,3.612,0,0,1-.819-1.485,3.942,3.942,0,0,0,1.794-.074,4.359,4.359,0,0,1-1.7-.82,4.129,4.129,0,0,1-1.171-1.465,3.852,3.852,0,0,1-.393-1.837,5.449,5.449,0,0,0,.884.345,3.433,3.433,0,0,0,.94.138,4.184,4.184,0,0,1-1.7-2.527,4.138,4.138,0,0,1,.458-3.031,11.908,11.908,0,0,0,3.835,3.094,11.765,11.765,0,0,0,4.756,1.268c-.007-.05-.01-.082-.016-.113a4.038,4.038,0,0,1,.191-2.316,4.1,4.1,0,0,1,3.242-2.641c.125-.023.253-.035.379-.052h.571c.147.021.295.037.441.063a4.11,4.11,0,0,1,2.238,1.177.166.166,0,0,0,.181.055c.178-.048.359-.085.537-.134a8.286,8.286,0,0,0,1.881-.785c.031-.018.065-.031.1-.046l.016.021a4.253,4.253,0,0,1-1.76,2.238.182.182,0,0,0,.07,0,8.272,8.272,0,0,0,1.947-.506l.315-.124v.018c-.021.025-.044.048-.062.075a8.414,8.414,0,0,1-1.918,1.988.205.205,0,0,0-.094.193,11.667,11.667,0,0,1-.092,1.914,12.173,12.173,0,0,1-.615,2.517,12.159,12.159,0,0,1-3,4.682,11.066,11.066,0,0,1-2,1.535,11.6,11.6,0,0,1-5.628,1.632C-521.625-1988.222-521.684-1988.214-521.743-1988.208Z" transform="translate(528.448 2004.741)" fill="#666"/>
</svg>
