<svg xmlns="http://www.w3.org/2000/svg" width="18.504" height="18.504" viewBox="0 0 18.504 18.504">
  <g id="Group_38" data-name="Group 38" transform="translate(0)">
    <path id="Path_25" data-name="Path 25" d="M5256.913,30.911a6.769,6.769,0,0,0-.431-2.246,4.727,4.727,0,0,0-2.705-2.706,6.793,6.793,0,0,0-2.246-.43c-.987-.045-1.3-.056-3.814-.056s-2.828.011-3.815.056a6.8,6.8,0,0,0-2.246.43,4.732,4.732,0,0,0-2.706,2.706,6.809,6.809,0,0,0-.43,2.246c-.045.987-.056,1.3-.056,3.814s.011,2.828.056,3.815a6.809,6.809,0,0,0,.43,2.246,4.733,4.733,0,0,0,2.706,2.706,6.8,6.8,0,0,0,2.246.43c.987.045,1.3.056,3.815.056s2.827-.011,3.814-.056a6.793,6.793,0,0,0,2.246-.43,4.727,4.727,0,0,0,2.705-2.706,6.769,6.769,0,0,0,.431-2.246c.045-.987.056-1.3.056-3.815S5256.958,31.9,5256.913,30.911Zm-9.2,8.566a4.751,4.751,0,1,1,4.751-4.751A4.751,4.751,0,0,1,5247.717,39.477Zm4.939-8.58a1.11,1.11,0,1,1,1.11-1.11A1.111,1.111,0,0,1,5252.656,30.9Z" transform="translate(-5238.465 -25.474)" fill="#666"/>
    <path id="Path_26" data-name="Path 26" d="M5301.374,85.3a3.084,3.084,0,1,0,3.084,3.084A3.084,3.084,0,0,0,5301.374,85.3Z" transform="translate(-5292.122 -79.13)" fill="#666"/>
  </g>
</svg>
