<svg id="Group_36" data-name="Group 36" xmlns="http://www.w3.org/2000/svg" width="10.011" height="19.25" viewBox="0 0 10.011 19.25">
  <path id="Path_24" data-name="Path 24" d="M13.277-1998.67H9.734c0-.051-.009-.1-.009-.154q0-4.241,0-8.482v-.151H6.765v-3.427H9.724v-.142c0-.827,0-1.654,0-2.48a5.325,5.325,0,0,1,.313-1.829,3.7,3.7,0,0,1,1.889-2.123,4.525,4.525,0,0,1,2-.46c.748,0,1.5.036,2.244.063.2.007.4.036.6.056v3.083h-.141c-.546,0-1.093-.007-1.639,0a3.849,3.849,0,0,0-.7.069,1.123,1.123,0,0,0-.949.951,3.6,3.6,0,0,0-.056.626c-.007.687,0,1.373,0,2.06v.132h3.382l-.444,3.427H13.286v.154q0,4.236,0,8.471C13.286-1998.773,13.28-1998.722,13.277-1998.67Z" transform="translate(-6.765 2017.921)" fill="#666"/>
</svg>
